<svg xmlns="http://www.w3.org/2000/svg" xmlns:xlink="http://www.w3.org/1999/xlink" version="1.1" viewBox="167.19 95.03 650.02 700.97"><path stroke="none" fill="white" fill-rule="evenodd" d="M569.5294009508505,792.5998510527438C565.499445075924,788.3268530005166 562.8041497990898,782.7437168804023 563.6114732496532,780.3412327897425C563.9517704978998,779.3285547553842 569.1284015273742,773.7355498407891 575.1150977595962,767.9123329795314C581.1017939918183,762.0891161182735 586.0,756.6341298180477 586.0,755.7901412012517C586.0,753.1966454441899 579.69744689692,752.9337172596628 543.2695077829645,754.0075222278253C524.146278502334,754.5712274252185 484.13906532410107,755.0856957838706 454.36458960911347,755.1507852470525L400.22917921822693,755.2691297255648L400.70991735054076,765.3845648627823C401.2963269055106,777.723481662648 400.00180291347925,782.4162699614878 395.1021167802077,785.7134433236517C389.3490117970705,789.5849126349864 380.29691640250576,788.0830549222819 376.8707828739574,782.6886332386373C375.03688608170955,779.8011764190954 374.8940570444404,778.3486126670703 375.3586146336719,767.3099622428881L375.87162794014273,755.1199244857763L357.10466563396596,754.8099622428881L338.33770332778914,754.5L334.56274638582477,751.6181782792373C328.5069206527912,746.9951294861224 326.31878960640285,739.1517825531286 329.4146864616031,733.164978191355C332.244137784582,727.6934226731594 337.61632682836114,726.1883625302593 358.8276339650015,724.9247143786288C370.29892988948836,724.2413202908242 376.72340549127847,723.459503099483 377.2145137597203,722.6871498504622C377.62968713990534,722.034217432708 377.9762651994985,718.4846494963048 377.98468722548296,714.7992211028993C378.00415445340957,706.2804781454753 379.6311268880278,698.6438007025566 381.85540580905064,696.6308559443628C383.9732106536874,694.7142689009859 388.573752040221,694.3533834551122 392.19804296677614,695.8195368172048C395.4627515366916,697.1402264480962 397.5594859657658,703.2327392161825 399.1431366515485,716.0C399.72302352637587,720.675 400.39033713740326,724.6997929088315 400.62605578716494,724.9439842418477C402.18285325324547,726.556739316013 582.8793511762841,726.4574270597793 584.4913994379954,724.8429303623811C585.9385209677454,723.3936108934744 581.5729568366476,717.7735495906738 571.9445979383559,708.6906550860333C558.156460901419,695.6836415913198 556.1799097753064,689.5612680305856 563.651089425882,683.0014854148403C566.4758557920987,680.5213076960215 567.9388843134622,680.0 572.0746342956024,680.0C575.0994166842427,680.0 578.6244505969386,680.7880851253013 580.984043723636,681.9918597152114C583.1314458976098,683.0873825585776 592.4510187673263,691.0316903414705 601.6942056563396,699.6458770105289C610.9373925453528,708.2600636795875 622.1328700152386,718.1694799883069 626.573044478308,721.6668021410167C634.966843141841,728.2782130789252 639.0,733.7718441484942 639.0,738.5937681269817C639.0,740.703494608565 637.8017795691851,742.474857994484 634.25,745.6158283979725C609.5759318721074,767.4360219696 599.4769987811832,776.937643010918 593.5477128161092,783.9107358752569C585.5377423537464,793.330802339191 581.7737746151384,796.0 576.5000430922973,796.0C573.5149238882659,796.0 572.0726589403893,795.2964901160212 569.5294009508505,792.5998510527438zM213.35356515599867,674.457817058015C211.62302599179793,673.6993478346308 209.26052599179792,671.875369721155 208.10356515599867,670.4045323614023C206.18024221452237,667.959423460859 206.0,666.4594824626165 206.0,652.8990682373735C206.0,641.055996139255 205.66046919763647,637.3558503632325 204.314787702609,634.5339269291749L202.629575405218,631.0L190.2245635960016,631.0C178.2962496434927,631.0 177.670902969049,630.8943234294246 173.95129369941037,628.25C165.62742248845836,622.3324409041298 164.95288487623105,614.8118210061219 172.10455404202798,607.6601518403249L176.04321967015517,603.7214862121978L189.84812722491097,604.4222400070985C201.71127018229294,605.0244274838246 203.83517308427503,604.9035305708605 204.94794069189595,603.5627276288309C205.95719678750538,602.3466484286575 206.08710786698182,598.4175206245106 205.5368527621672,585.7512307278312C204.84169080098428,569.749338426527 204.86717779209215,569.4463004059533 207.1980286138865,566.0C212.02551817295856,558.8622719774243 221.935217111767,558.3997129148711 229.29385502994197,564.9686240907558L232.5,567.8306865756219L233.0,586.665343287811L233.5,605.5L246.71699099799844,605.1615539640654C261.6995937018249,604.777896103221 265.6871996403589,605.6511135998173 269.46727409206426,610.1434768412199C271.35988394069,612.3927158503741 272.0,614.2955691659255 272.0,617.6724332253069C272.0,623.1356927312631 270.00640441136045,626.7737233871269 265.2195971211369,630.0457117743649C261.77200092371066,632.4022918574831 261.0790843805345,632.4883298505468 247.81452862370048,632.206862604727C240.21653788066521,632.0456370373269 233.94363195696153,632.0456370373269 233.87473768213673,632.206862604727C233.80584340731193,632.3680881721272 233.46834340731192,640.4521569627567 233.12473768213673,650.171459917237C232.52215426907995,667.2162595749181 232.41134571471588,667.9389295425394 230.0,670.5503385384229C225.2794125863746,675.662581201333 219.30312144326564,677.0654178740119 213.35356515599867,674.457817058015zM736.8982039252452,672.75C734.4550144382071,670.8848711728259 732.3118227210194,668.2670635214828 731.8685858513516,666.6065586216193C731.4437970147907,665.0151658635101 731.4898924439515,658.1583802391859 731.9710201383755,651.3692572342325C732.8412655690809,639.0893503778404 732.1677255372514,632.8397280603025 729.8174962247539,631.3872064638226C729.2078490358047,631.0104237799062 721.6172794488097,630.656663954853 712.9495638092095,630.60107351926L697.1900808281183,630.5L693.3450404140592,627.4016535474182C685.4633065092142,621.0505259506892 685.0627419921495,615.1725521254975 692.0364334541451,608.1988606635019C697.0579779613565,603.1773161562905 699.4500937266316,602.7362829359564 716.9631855926559,603.6031274938514L730.9374154397151,604.2948091903997L732.0722354061631,601.3974045951999C732.8569652923002,599.3938445193226 733.000641517204,593.510695766986 732.5379631085302,582.3271279858154C731.8036611274149,564.5780482282595 732.2847998521042,562.2809370456724 737.6148791861488,558.0882960304696C742.4730776567727,554.2668365565303 752.2378795058398,556.1854572417648 757.5,561.9953905841074C759.3114210674295,563.9953895708962 759.5471447331427,566.0090740403385 760.0,583.3518002529322L760.5,602.5L778.0,603.0C797.7191352816728,603.5634038651907 798.919064608248,603.9527445189751 802.9298538976586,611.0889810760517C805.7565123764093,616.1183411632766 805.3936333171825,622.2340814835685 801.984475796536,627.0218017333715C798.4318596699588,632.0109910172285 794.6660578021873,633.112427202198 784.8419678309922,632.0357082630716C768.5205597443434,630.2468841326297 761.9197940219836,630.0401573988128 761.4728303384138,631.3038196202745C761.2401280792097,631.9617188291235 760.6674470782464,640.6 760.2002058918284,650.5C759.6328949027512,662.5202990556597 758.9044782459926,669.2087655357225 758.0075377394076,670.6335146626487C755.8445890972117,674.0692600291816 751.5869511750311,676.0 746.1734472733322,676.0C742.0521031422593,676.0 740.3947770595114,675.4192810294253 736.8982039252452,672.75zM456.5,632.3893501842563C448.25,631.6570612616624 437.225,630.3416216395769 432.0,629.4661510240666C416.13244471705684,626.8074757340754 373.84844185491215,612.3685019471012 354.5,603.0017580445572C347.9,599.8066423747599 340.4120012834739,596.4558402555492 337.8600028521642,595.555531112978C327.57892931197756,591.928513012137 316.8266808101394,582.7086841594355 301.6427592115231,564.5C296.1391279950446,557.9 286.3784534942334,547.325 279.9523714319427,541.0C273.52628936965203,534.675 266.91543285622413,527.475 265.26157917988075,525.0C263.6077255035373,522.525 257.562239413544,511.275 251.82716564656215,500.0C239.73777096214505,476.2325768411977 233.58093220638548,459.1511916690694 228.9391353696816,436.5C223.81957258183587,411.51739045268664 222.8373934226346,404.083768398933 222.7952487727302,390.0C222.76120544397884,378.6235059788129 223.3334079365808,373.3540652165735 226.43297512113676,356.5C233.83025140746858,316.2769076998698 238.17120209539542,300.94281230095106 248.0374468403661,280.1837609541882C258.5187260834926,258.13064757498347 276.3509157386675,233.66410673140558 295.2538375224575,215.40081654587354C333.3519371004247,178.59186943874516 370.31679650484705,157.23693741093842 418.5,144.2003990466235C437.133570186489,139.15886517217373 444.6536036028472,137.9370620478179 458.555071972895,137.69252742249955C468.8307319996883,137.5117727994869 469.78178150671914,137.6656527952764 474.1081365147802,140.2090162998148C479.87627730922463,143.5999721410009 482.47638567722373,147.40790824408614 482.15917375801376,152.0C482.0261988574812,153.925 481.5984859389829,223.225 481.20870060579546,306.0L480.5,456.5L470.5,456.15875040894247C443.58670723943777,455.24033539408714 416.4094878373721,446.87101767520835 404.4032108497967,435.80401799824756C401.4178477126808,433.052206349369 398.44646274974525,428.6329261073905 395.325916129597,422.3035427289768C392.7743935282303,417.1283068781598 389.7571298889795,412.2428678251694 388.62088582015065,411.4470115001093C385.62059447565304,409.34552564064705 380.0744067056578,409.67165753108276 374.96529086563424,412.25C367.16605278038685,416.18592696075916 365.9270333434364,423.11027645611017 371.07342018929626,434.0C376.1507741614663,444.74365039928597 380.84300216666844,450.0194686367529 392.1660311274967,457.7159791340443C408.9807499928832,469.1453114005392 427.007442972394,477.0912361911062 443.8107684164987,480.4802875290129C453.8028410469903,482.49558189615914 478.29056163274566,483.0883892873904 480.0344274787403,481.3572026650844C480.66756943383996,480.7286641308808 481.76376343691885,476.29980799165236 482.47041415224896,471.51530013346553C483.177064867579,466.73079227527876 484.37280606686716,462.21082782347185 485.12761681733366,461.47093468500566C485.8933506996068,460.72033429274205 495.8872545605587,458.54683762677575 507.73617431350993,456.553974803868C530.6558716751123,452.6991244262328 536.3472644018248,451.0074335703003 545.801915877742,445.2394389739537C557.2429106148566,438.25963691688156 562.1507982499967,433.1256694993005 567.9780268490877,422.0417947653983C574.7582098425805,409.14532130552226 578.7149225448185,406.76491359989967 587.3642184061949,410.3788201604661C595.2366082014054,413.6681146399498 597.1554701663568,421.8273903277988 592.4393674959758,431.95908040680627C588.750465578257,439.8840162223283 575.577920893709,455.33462308214354 565.5394615664947,463.5110607595446C548.7679437216132,477.17165009344063 521.3722783670809,484.9956751433495 490.28941375143074,485.00198830201066L480.5,485.0039766040213L480.23699854263594,529.2519883020107C480.0923477410857,553.5883947359048 479.7004953209228,580.2077404901307 479.3662153867184,588.4060899780683L478.758433688165,603.3121799561366L488.1292168440825,602.6494291282497C519.0288985652983,600.4640419197921 541.2017463803542,593.3459404841435 568.868336019226,576.7299241144034C597.5585090095478,559.4991634648122 622.5309933215905,538.8080828397453 643.6521901193985,514.7673762435165C662.3519938269307,493.4827635085738 670.6763467835266,480.8056913766874 676.4321528153295,464.8471057139504C685.5990611316181,439.4308754206363 689.4195371923032,430.48435701458146 692.8780498706418,426.33527672396605C693.870486098426,425.14467892214736 697.5664215161705,422.4111713830358 701.091239687852,420.2608155259404C706.9796906156887,416.668498326823 707.6743552054318,415.8699996269921 709.6475698007375,410.42553880197437C713.0881046550404,400.93247237325363 714.3094292482655,387.7240299801292 713.6166991390749,367.5C713.277596196302,357.6 712.7300392402392,340.4556176325103 712.3999059033797,329.40137251668966L711.799663472726,309.3027450333793L714.3985712088477,307.258443910212C717.6757843703751,304.68058766166064 728.7598438512929,302.5557986682574 730.6681994835157,304.13959317287237C734.8279810698826,307.5919052606422 738.5778990674106,330.84438505696255 739.757419461786,360.5C740.6932862659028,384.0296529955727 739.8370798636851,402.8559801409589 737.1190580365926,418.5124782877215C734.8582157384511,431.535505880123 726.119029419248,461.74304609942567 722.5127757694761,469.0C721.2828550747229,471.475 719.4712299915594,475.9586507540503 718.486942251335,478.963668342334C716.8895960602757,483.84034535714324 710.5424731289963,496.70626393716185 701.5943670966518,513.2057176771478C694.7452861575484,525.8347694237046 691.4268202169548,530.8316439181198 685.1089673761229,538.0290772861995C681.4740353192553,542.1700697936091 675.8413613511848,548.9200697936091 672.591914113744,553.0290772861995C666.7220430738628,560.4516763687458 646.2516379880694,578.8596100935695 634.2060300349141,587.5474371882347C617.581559620508,599.5377431206887 597.7044335462014,607.9162705181326 579.8846853800201,610.4447550779336C573.8383142494029,611.3026884170594 565.6605136466305,613.2997280614107 560.8846853800201,615.0846032578726C541.9991566539516,622.1427112788192 531.8953124705688,625.1389825775111 520.5,627.0605870037289C513.9,628.1735524661322 503.775,629.9335208592681 498.0,630.9716278773644C483.35008155699387,633.6050795051084 473.8519943460726,633.9295530017765 456.5,632.3893501842563zM423.17877073396403,613.3028854938789C425.6380277865624,610.9704913993783 427.0181970696671,607.0500627172712 428.29319757577707,598.7751417390854C428.9835223499445,594.2948431602654 429.40332534270703,594.5252834888183 386.0,575.5593512065175C376.925,571.5938523857963 368.5322984597348,567.8288915634978 367.34955213274407,567.1927716014098C365.47135023400955,566.1826127082037 364.6911035035338,566.5086477651126 361.1864492350312,569.7680949260795C353.9530330554008,576.4954169454528 348.770092417181,580.9099691942729 347.6777513725084,581.2740828758306C346.6241826557727,581.6252724480757 347.42174709770626,582.4204809114048 357.5,591.0673169103956C363.418608498563,596.1453038914188 388.8923046648973,608.6339059006337 403.5,613.6190380533643C414.8419292200766,617.4896702600156 418.83184671583945,617.4255695778402 423.17877073396403,613.3028854938789zM598.6240470119384,590.3172518333179C604.2674212115736,587.2122686997559 615.7085272897176,578.8102795654759 621.5,573.5178701014099C627.1017081488707,568.3988727919032 624.1870886044101,570.1257690793653 612.3470851207662,578.9409225730255C606.7629819371876,583.0984151578615 600.0129819371876,587.9597793948967 597.3470851207662,589.7439542108816C591.4536168929302,593.6882094896837 592.0283142898395,593.9462223979358 598.6240470119384,590.3172518333179zM588.2948911536262,356.89475374630115C577.4965607803853,352.7434784594966 569.9447181612366,339.63589373332957 571.369064487588,327.51692925046694C572.8699993509866,314.74631583707594 578.0740005022006,307.0561802768867 588.7774142039653,301.7919985081104C594.4612317266829,298.9965680581775 596.5289628622479,298.50589997450476 602.4854401258015,298.5391138877091C611.108351289979,298.58719610313676 615.576739254151,300.701928321879 622.3453433975969,307.93811362692566C628.7732429325363,314.8100581477298 631.346817743969,320.7969119236775 631.3992375262244,329.0C631.4726113940859,340.4821594953684 625.0282970408132,350.33123115400275 613.7566944025242,355.96371746322757C608.6500535428765,358.51553601566536 606.5492428838933,358.991686136352 600.5902776549567,358.9478944982005C596.0101041503725,358.9142354159475 591.6572843893794,358.1873813527588 588.2948911536262,356.89475374630115zM378.01979345382676,353.82052312396513C389.42480250376946,348.54096255466567 395.2313644051265,339.2184731484197 395.3524689250747,325.99275064730483C395.4021728529929,320.5646265926185 394.93516856609375,318.56508861331156 392.74473058906506,314.8273888096905C387.0636654625793,305.1333841264684 374.5199580405394,297.816670463847 363.670669681174,297.8685606486571C356.57090566433726,297.90251753640297 346.6931223099548,302.1991266425985 342.6394285401326,307.01666796780586C338.1273034244923,312.3790239925573 335.7249136888209,320.5733147917303 336.30846231341263,328.6109070420031C337.2282810169275,341.2801643608753 343.01862060279217,350.28715710919306 353.3629946157943,355.1395840730521C359.23761758324736,357.8953021913205 370.521384374784,357.29165626667753 378.01979345382676,353.82052312396513zM530.3316033801373,264.936619464783C526.0478704347918,262.1924437172781 525.0,258.546431105762 525.0,246.3855729630796C525.0,236.31176085268405 525.0715986113175,235.9880461433853 528.0499846000655,232.59585190553284C532.2170990179184,227.8497707830337 536.5102211554731,226.6376454933005 547.0286894854221,227.2373814449121C562.2627606009091,228.10598891234642 565.0033948528873,231.22072047873172 564.9934107942973,247.6542920566365C564.9880578762738,256.4650938660511 564.644662861913,259.0188951900163 563.1631730389388,261.2656242173743C559.6997940709514,266.5179546346674 558.4033780523206,266.93526729978123 545.5,266.95134987126687C535.1329734855321,266.96427117329625 533.0688410273428,266.6901043954393 530.3316033801373,264.936619464783zM594.4199646255192,265.1143220333077C588.6604773347102,261.60219364991787 588.0,258.55551198938963 588.0,235.5C588.0,206.2955763204656 588.8836363657987,204.89228573605152 607.375406595729,204.73018710258108C615.098557086285,204.66248605908774 618.2686307076741,205.0446784121643 620.7405822969154,206.34152758251605C627.0076860400648,209.62941085870364 627.1364425857182,210.26966131411288 626.8020313068982,236.4824844510352L626.5,260.15720396848L622.7646851746845,263.57860198424L619.0293703493688,267.0L608.2646851746845,266.9962619395625C599.4971213045949,266.99321738385976 596.9285755537238,266.6440699429678 594.4199646255192,265.1143220333077zM657.9519494574298,264.7466020611514C651.1174410605163,260.140827517615 651.1461562638242,260.31553780120765 650.9049186642301,221.870752109296C650.6884601778204,187.37488523272862 650.696415831321,187.22727748086874 652.9704172585216,183.54786588119242C654.2259539775861,181.51636479562262 656.3505335997463,179.4370263464394 657.6917053077666,178.92711377189642C661.6693625987705,177.4148111653201 680.5671988561263,177.79232409390514 684.5681079708594,179.46401066003756C690.5632455805201,181.96893909424753 690.7127255830817,183.12970209993614 690.2165991673318,223.32646387426635L689.7744129233074,259.1529277485327L686.0420426724909,263.0764638742663L682.3096724216745,267.0L671.8027194306289,267.0C662.5578588946271,267.0 660.8941080151269,266.7293224268486 657.9519494574298,264.7466020611514zM721.3858406500626,263.7656230754054C719.3597771564602,261.9867157668784 717.1241309375831,259.14799817800684 716.4177379414468,257.45736176680197C714.734115359648,253.4278857455435 714.1241908025071,173.498205632076 715.753976090908,170.47238671712614C716.3382846102646,169.38757402270676 717.8823654722332,167.50329487178766 719.1852668952827,166.28509971508367C721.3342530301658,164.27582682994745 722.6719154049448,164.05456751440715 733.5937979479957,163.90182140900828C746.9255835911848,163.71537201926404 749.0085982833812,164.32619190947673 752.0497727841441,169.31382189341105C753.8904419236061,172.3325821086435 753.9927202957016,174.6691710320967 753.9962619395625,213.78211863089643C754.0003601899289,259.0420764701779 753.9670354794082,259.32561695776127 748.0592490951326,264.29669146293895C745.0419424561319,266.83558761317255 744.2451425569859,267.0 734.9580709463627,267.0C725.2375947059064,267.0 725.0070066311,266.945048917388 721.3858406500626,263.7656230754054zM783.2468481022972,263.75C776.8805080068773,257.1721265556559 777.0,258.38214332764505 777.0,200.4922805636C777.0,133.70056486762655 775.7209011615,137.58585958574244 797.7279325155508,137.53066704624752L809.9558650311017,137.5L813.2279325155508,140.76731542701003L816.5,144.03463085402007L817.0,179.76731542701003C817.275,199.4202919421545 817.275,225.26727446274572 817.0,237.20505436165718L816.5,258.91010872331435L812.5470522345142,262.9550543616572L808.5941044690286,267.0L797.4932190181873,267.0L786.3923335673461,267.0L783.2468481022972,263.75zM211.1898243972242,222.97436540468397C206.28478592451467,219.98384582232202 205.0,215.84454940388892 205.0,203.03211863089643C205.0,193.23853672177987 204.80353372406233,191.98628732014996 203.25,191.87785593418994C202.2875,191.8106766979944 197.42123214203278,191.8520806196624 192.4360714267395,191.96986464900766C183.93036973964485,192.17082824362993 183.17772175474698,192.0204228606531 180.2153279530973,189.5277328167353C174.79548629205212,184.9672367271961 174.03813802851155,176.99727324304243 178.49293102718124,171.40206822407595C180.77148555180807,168.54021140693814 180.97459992105422,168.49307193976273 193.1517505444744,168.0L205.5,167.5L206.0,153.5C206.275,145.8 206.86803189819875,138.931069527239 207.31784866266386,138.23571006053115C207.76766542712897,137.5403505938233 209.96344626359604,136.03897219021846 212.19736163259063,134.899313608076C216.0647013441387,132.92634410641142 216.46091702153836,132.90431000265795 220.47884071634843,134.43876906182965C228.32097350562742,137.43370689932024 228.9007836495643,138.73342298347268 229.21945628429683,154.03193892588226L229.5,167.5L241.1500462518759,168.0C250.54669188820515,168.40328791118816 253.18860017952025,168.85247576574972 254.80867116512445,170.32229424511507C260.1550366040503,175.17281424664617 260.02976373007084,183.17023626992915 254.52113089496913,188.67886910503086L251.2,192.0L239.9496805887474,192.0L228.6993611774948,192.0L229.3382127157961,201.75C230.08548070709196,213.15462608027593 229.02442453496386,218.1294216188823 224.98264942392308,222.17119672992308C221.50863602257078,225.64521013127538 216.08823634548924,225.96084490637685 211.1898243972242,222.97436540468397zM519.3643279134909,207.59072678677785C516.3029362350482,206.2258082357074 510.8988307445449,199.49930097411752 509.6478933293531,195.4966498110746C508.7355189008317,192.57730586700404 512.2721805609764,187.41195350248577 516.7461762094376,185.12949123555944C518.8497247583098,184.05634084233108 525.0548776993612,181.60616154680392 530.5354049673299,179.6846483566102C536.0159322352985,177.7631351664165 547.925,172.94715435508124 557.0,168.9824687758652C566.075,165.01778319664916 578.675,159.61563686277105 585.0,156.97769914502499C601.5005938419819,150.09587481917956 623.7562905028963,139.75195623506897 636.5,133.04172377664892C642.55,129.85608097910497 652.9,124.43600846652681 659.5,120.99711819314192C673.1055111258318,113.90804851510359 682.4418782074073,108.05718286221489 689.0,102.5102126064036C694.1565390812848,98.14872469699604 700.3656149593294,95.05135879052588 704.0,95.02753893489354C712.0258473799182,94.97493731900047 720.2461666380658,100.48676013887032 722.0317938490033,107.11807334103784C723.9648001855381,114.29671083089094 717.982115436029,137.17173071781633 712.8220778974933,142.331768256353C710.1315436349844,145.02230251886226 709.4512576582224,145.22295747904965 704.6929122196577,144.7295207768541C701.836810498846,144.43334526113168 698.2287520174834,143.61043200635683 696.6750044832966,142.90082465513223C693.5952796536601,141.4942928146793 691.0,137.37562050953284 691.0,133.89467236477208C691.0,131.89187380821812 690.8397768198603,131.82696785567526 689.25,133.18575236423936C688.2875,134.00840248289433 684.125,136.50463319523416 680.0,138.7329317249946C675.875,140.961230254755 669.8427161422672,144.25449290831628 666.5949247605938,146.051293177353C651.297976361044,154.51414000761653 600.8738457641838,177.29721305420728 536.0,205.05783776455704C527.5240499575378,208.68484130382262 523.2708043126405,209.33242555210228 519.3643279134909,207.59072678677785z"/></svg>